<mxfile host="app.diagrams.net" modified="2023-06-10T16:37:38.326Z" agent="Mozilla/5.0 (Windows NT 10.0; Win64; x64; rv:109.0) Gecko/20100101 Firefox/113.0" etag="hmHeX-rAL_WBoiL-f8iI" version="21.3.8" type="device">
  <diagram name="Страница 1" id="f_nfQIoVwDLt9S1nWf3A">
    <mxGraphModel dx="1305" dy="792" grid="1" gridSize="10" guides="1" tooltips="1" connect="1" arrows="1" fold="1" page="1" pageScale="1" pageWidth="827" pageHeight="1169" math="0" shadow="0">
      <root>
        <mxCell id="0" />
        <mxCell id="1" parent="0" />
        <mxCell id="gwjLcsz46P20MZwivV7I-1" value="ManhattanMetric" style="swimlane;fontStyle=0;childLayout=stackLayout;horizontal=1;startSize=26;fillColor=none;horizontalStack=0;resizeParent=1;resizeParentMax=0;resizeLast=0;collapsible=1;marginBottom=0;whiteSpace=wrap;html=1;" vertex="1" parent="1">
          <mxGeometry x="30" y="450" width="230" height="126" as="geometry" />
        </mxCell>
        <mxCell id="gwjLcsz46P20MZwivV7I-44" value="+ get_distance(self, data : pd.Series, poind: pd.Series) : float" style="text;strokeColor=none;fillColor=none;align=left;verticalAlign=top;spacingLeft=4;spacingRight=4;overflow=hidden;rotatable=0;points=[[0,0.5],[1,0.5]];portConstraint=eastwest;whiteSpace=wrap;html=1;" vertex="1" parent="gwjLcsz46P20MZwivV7I-1">
          <mxGeometry y="26" width="230" height="50" as="geometry" />
        </mxCell>
        <mxCell id="gwjLcsz46P20MZwivV7I-45" value="+ get_distance_matrix(self, vectors: pd.Dataframe): np.ndarray" style="text;strokeColor=none;fillColor=none;align=left;verticalAlign=top;spacingLeft=4;spacingRight=4;overflow=hidden;rotatable=0;points=[[0,0.5],[1,0.5]];portConstraint=eastwest;whiteSpace=wrap;html=1;" vertex="1" parent="gwjLcsz46P20MZwivV7I-1">
          <mxGeometry y="76" width="230" height="50" as="geometry" />
        </mxCell>
        <mxCell id="gwjLcsz46P20MZwivV7I-32" value="+ item: attribute" style="text;strokeColor=none;fillColor=none;align=left;verticalAlign=top;spacingLeft=4;spacingRight=4;overflow=hidden;rotatable=0;points=[[0,0.5],[1,0.5]];portConstraint=eastwest;whiteSpace=wrap;html=1;" vertex="1" parent="1">
          <mxGeometry x="-440" y="440" width="100" height="26" as="geometry" />
        </mxCell>
        <mxCell id="gwjLcsz46P20MZwivV7I-36" value="&lt;i&gt;&amp;lt;&amp;lt;Interface&amp;gt;&amp;gt;&lt;/i&gt;&lt;br&gt;&lt;b&gt;IMetric&lt;/b&gt;" style="swimlane;fontStyle=1;align=center;verticalAlign=top;childLayout=stackLayout;horizontal=1;startSize=40;horizontalStack=0;resizeParent=1;resizeParentMax=0;resizeLast=0;collapsible=1;marginBottom=0;whiteSpace=wrap;html=1;" vertex="1" parent="1">
          <mxGeometry x="319" y="190" width="190" height="226" as="geometry">
            <mxRectangle x="540" y="160" width="120" height="40" as="alternateBounds" />
          </mxGeometry>
        </mxCell>
        <mxCell id="gwjLcsz46P20MZwivV7I-37" value="- __instance Singleton" style="text;strokeColor=none;fillColor=none;align=left;verticalAlign=top;spacingLeft=4;spacingRight=4;overflow=hidden;rotatable=0;points=[[0,0.5],[1,0.5]];portConstraint=eastwest;whiteSpace=wrap;html=1;" vertex="1" parent="gwjLcsz46P20MZwivV7I-36">
          <mxGeometry y="40" width="190" height="26" as="geometry" />
        </mxCell>
        <mxCell id="gwjLcsz46P20MZwivV7I-38" value="" style="line;strokeWidth=1;fillColor=none;align=left;verticalAlign=middle;spacingTop=-1;spacingLeft=3;spacingRight=3;rotatable=0;labelPosition=right;points=[];portConstraint=eastwest;strokeColor=inherit;" vertex="1" parent="gwjLcsz46P20MZwivV7I-36">
          <mxGeometry y="66" width="190" height="8" as="geometry" />
        </mxCell>
        <mxCell id="gwjLcsz46P20MZwivV7I-40" value="+ __new__: Singleton" style="text;strokeColor=none;fillColor=none;align=left;verticalAlign=top;spacingLeft=4;spacingRight=4;overflow=hidden;rotatable=0;points=[[0,0.5],[1,0.5]];portConstraint=eastwest;whiteSpace=wrap;html=1;" vertex="1" parent="gwjLcsz46P20MZwivV7I-36">
          <mxGeometry y="74" width="190" height="26" as="geometry" />
        </mxCell>
        <mxCell id="gwjLcsz46P20MZwivV7I-42" value="+ get_distance(self, data : pd.Series, poind: pd.Series) : float" style="text;strokeColor=none;fillColor=none;align=left;verticalAlign=top;spacingLeft=4;spacingRight=4;overflow=hidden;rotatable=0;points=[[0,0.5],[1,0.5]];portConstraint=eastwest;whiteSpace=wrap;html=1;" vertex="1" parent="gwjLcsz46P20MZwivV7I-36">
          <mxGeometry y="100" width="190" height="50" as="geometry" />
        </mxCell>
        <mxCell id="gwjLcsz46P20MZwivV7I-43" value="+ get_distance_matrix(self, vectors: pd.Dataframe): np.ndarray" style="text;strokeColor=none;fillColor=none;align=left;verticalAlign=top;spacingLeft=4;spacingRight=4;overflow=hidden;rotatable=0;points=[[0,0.5],[1,0.5]];portConstraint=eastwest;whiteSpace=wrap;html=1;" vertex="1" parent="gwjLcsz46P20MZwivV7I-36">
          <mxGeometry y="150" width="190" height="50" as="geometry" />
        </mxCell>
        <mxCell id="gwjLcsz46P20MZwivV7I-39" value="+ __del__: Singleton" style="text;strokeColor=none;fillColor=none;align=left;verticalAlign=top;spacingLeft=4;spacingRight=4;overflow=hidden;rotatable=0;points=[[0,0.5],[1,0.5]];portConstraint=eastwest;whiteSpace=wrap;html=1;" vertex="1" parent="gwjLcsz46P20MZwivV7I-36">
          <mxGeometry y="200" width="190" height="26" as="geometry" />
        </mxCell>
        <mxCell id="gwjLcsz46P20MZwivV7I-22" value="MetricFactory" style="swimlane;fontStyle=1;align=center;verticalAlign=top;childLayout=stackLayout;horizontal=1;startSize=26;horizontalStack=0;resizeParent=1;resizeParentMax=0;resizeLast=0;collapsible=1;marginBottom=0;whiteSpace=wrap;html=1;" vertex="1" parent="1">
          <mxGeometry x="309" y="650" width="220" height="190" as="geometry" />
        </mxCell>
        <mxCell id="gwjLcsz46P20MZwivV7I-23" value="- __instance Singleton" style="text;strokeColor=none;fillColor=none;align=left;verticalAlign=top;spacingLeft=4;spacingRight=4;overflow=hidden;rotatable=0;points=[[0,0.5],[1,0.5]];portConstraint=eastwest;whiteSpace=wrap;html=1;" vertex="1" parent="gwjLcsz46P20MZwivV7I-22">
          <mxGeometry y="26" width="220" height="26" as="geometry" />
        </mxCell>
        <mxCell id="gwjLcsz46P20MZwivV7I-24" value="- __exist_kernel : list" style="text;strokeColor=none;fillColor=none;align=left;verticalAlign=top;spacingLeft=4;spacingRight=4;overflow=hidden;rotatable=0;points=[[0,0.5],[1,0.5]];portConstraint=eastwest;whiteSpace=wrap;html=1;" vertex="1" parent="gwjLcsz46P20MZwivV7I-22">
          <mxGeometry y="52" width="220" height="26" as="geometry" />
        </mxCell>
        <mxCell id="gwjLcsz46P20MZwivV7I-25" value="" style="line;strokeWidth=1;fillColor=none;align=left;verticalAlign=middle;spacingTop=-1;spacingLeft=3;spacingRight=3;rotatable=0;labelPosition=right;points=[];portConstraint=eastwest;strokeColor=inherit;" vertex="1" parent="gwjLcsz46P20MZwivV7I-22">
          <mxGeometry y="78" width="220" height="8" as="geometry" />
        </mxCell>
        <mxCell id="gwjLcsz46P20MZwivV7I-26" value="+ __del__: Singleton" style="text;strokeColor=none;fillColor=none;align=left;verticalAlign=top;spacingLeft=4;spacingRight=4;overflow=hidden;rotatable=0;points=[[0,0.5],[1,0.5]];portConstraint=eastwest;whiteSpace=wrap;html=1;" vertex="1" parent="gwjLcsz46P20MZwivV7I-22">
          <mxGeometry y="86" width="220" height="24" as="geometry" />
        </mxCell>
        <mxCell id="gwjLcsz46P20MZwivV7I-27" value="+ exist_metrics : list" style="text;strokeColor=none;fillColor=none;align=left;verticalAlign=top;spacingLeft=4;spacingRight=4;overflow=hidden;rotatable=0;points=[[0,0.5],[1,0.5]];portConstraint=eastwest;whiteSpace=wrap;html=1;" vertex="1" parent="gwjLcsz46P20MZwivV7I-22">
          <mxGeometry y="110" width="220" height="20" as="geometry" />
        </mxCell>
        <mxCell id="gwjLcsz46P20MZwivV7I-28" value="+ __new__: Singleton" style="text;strokeColor=none;fillColor=none;align=left;verticalAlign=top;spacingLeft=4;spacingRight=4;overflow=hidden;rotatable=0;points=[[0,0.5],[1,0.5]];portConstraint=eastwest;whiteSpace=wrap;html=1;" vertex="1" parent="gwjLcsz46P20MZwivV7I-22">
          <mxGeometry y="130" width="220" height="22" as="geometry" />
        </mxCell>
        <mxCell id="gwjLcsz46P20MZwivV7I-29" value="&lt;div&gt;+ get_metric(self, name_metric : str) : IKernel&lt;br&gt;&lt;/div&gt;" style="text;strokeColor=none;fillColor=none;align=left;verticalAlign=top;spacingLeft=4;spacingRight=4;overflow=hidden;rotatable=0;points=[[0,0.5],[1,0.5]];portConstraint=eastwest;whiteSpace=wrap;html=1;" vertex="1" parent="gwjLcsz46P20MZwivV7I-22">
          <mxGeometry y="152" width="220" height="38" as="geometry" />
        </mxCell>
        <mxCell id="gwjLcsz46P20MZwivV7I-46" value="EuclidianMetric" style="swimlane;fontStyle=0;childLayout=stackLayout;horizontal=1;startSize=26;fillColor=none;horizontalStack=0;resizeParent=1;resizeParentMax=0;resizeLast=0;collapsible=1;marginBottom=0;whiteSpace=wrap;html=1;" vertex="1" parent="1">
          <mxGeometry x="299" y="450" width="230" height="126" as="geometry" />
        </mxCell>
        <mxCell id="gwjLcsz46P20MZwivV7I-47" value="+ get_distance(self, data : pd.Series, poind: pd.Series) : float" style="text;strokeColor=none;fillColor=none;align=left;verticalAlign=top;spacingLeft=4;spacingRight=4;overflow=hidden;rotatable=0;points=[[0,0.5],[1,0.5]];portConstraint=eastwest;whiteSpace=wrap;html=1;" vertex="1" parent="gwjLcsz46P20MZwivV7I-46">
          <mxGeometry y="26" width="230" height="50" as="geometry" />
        </mxCell>
        <mxCell id="gwjLcsz46P20MZwivV7I-48" value="+ get_distance_matrix(self, vectors: pd.Dataframe): np.ndarray" style="text;strokeColor=none;fillColor=none;align=left;verticalAlign=top;spacingLeft=4;spacingRight=4;overflow=hidden;rotatable=0;points=[[0,0.5],[1,0.5]];portConstraint=eastwest;whiteSpace=wrap;html=1;" vertex="1" parent="gwjLcsz46P20MZwivV7I-46">
          <mxGeometry y="76" width="230" height="50" as="geometry" />
        </mxCell>
        <mxCell id="gwjLcsz46P20MZwivV7I-49" value="CosineMetric" style="swimlane;fontStyle=0;childLayout=stackLayout;horizontal=1;startSize=26;fillColor=none;horizontalStack=0;resizeParent=1;resizeParentMax=0;resizeLast=0;collapsible=1;marginBottom=0;whiteSpace=wrap;html=1;" vertex="1" parent="1">
          <mxGeometry x="570" y="450" width="230" height="126" as="geometry" />
        </mxCell>
        <mxCell id="gwjLcsz46P20MZwivV7I-50" value="+ get_distance(self, data : pd.Series, poind: pd.Series) : float" style="text;strokeColor=none;fillColor=none;align=left;verticalAlign=top;spacingLeft=4;spacingRight=4;overflow=hidden;rotatable=0;points=[[0,0.5],[1,0.5]];portConstraint=eastwest;whiteSpace=wrap;html=1;" vertex="1" parent="gwjLcsz46P20MZwivV7I-49">
          <mxGeometry y="26" width="230" height="50" as="geometry" />
        </mxCell>
        <mxCell id="gwjLcsz46P20MZwivV7I-51" value="+ get_distance_matrix(self, vectors: pd.Dataframe): np.ndarray" style="text;strokeColor=none;fillColor=none;align=left;verticalAlign=top;spacingLeft=4;spacingRight=4;overflow=hidden;rotatable=0;points=[[0,0.5],[1,0.5]];portConstraint=eastwest;whiteSpace=wrap;html=1;" vertex="1" parent="gwjLcsz46P20MZwivV7I-49">
          <mxGeometry y="76" width="230" height="50" as="geometry" />
        </mxCell>
        <mxCell id="gwjLcsz46P20MZwivV7I-52" value="" style="endArrow=block;dashed=1;endFill=0;endSize=12;html=1;rounded=0;" edge="1" parent="1" source="gwjLcsz46P20MZwivV7I-1" target="gwjLcsz46P20MZwivV7I-36">
          <mxGeometry width="160" relative="1" as="geometry">
            <mxPoint x="480" y="490" as="sourcePoint" />
            <mxPoint x="640" y="490" as="targetPoint" />
          </mxGeometry>
        </mxCell>
        <mxCell id="gwjLcsz46P20MZwivV7I-53" value="" style="endArrow=block;dashed=1;endFill=0;endSize=12;html=1;rounded=0;exitX=0.5;exitY=0;exitDx=0;exitDy=0;" edge="1" parent="1" source="gwjLcsz46P20MZwivV7I-46" target="gwjLcsz46P20MZwivV7I-36">
          <mxGeometry width="160" relative="1" as="geometry">
            <mxPoint x="480" y="490" as="sourcePoint" />
            <mxPoint x="640" y="490" as="targetPoint" />
          </mxGeometry>
        </mxCell>
        <mxCell id="gwjLcsz46P20MZwivV7I-54" value="" style="endArrow=block;dashed=1;endFill=0;endSize=12;html=1;rounded=0;" edge="1" parent="1" source="gwjLcsz46P20MZwivV7I-49" target="gwjLcsz46P20MZwivV7I-36">
          <mxGeometry width="160" relative="1" as="geometry">
            <mxPoint x="480" y="490" as="sourcePoint" />
            <mxPoint x="640" y="490" as="targetPoint" />
          </mxGeometry>
        </mxCell>
        <mxCell id="gwjLcsz46P20MZwivV7I-55" value="Use" style="endArrow=open;endSize=12;dashed=1;html=1;rounded=0;" edge="1" parent="1" source="gwjLcsz46P20MZwivV7I-22" target="gwjLcsz46P20MZwivV7I-49">
          <mxGeometry width="160" relative="1" as="geometry">
            <mxPoint x="350" y="500" as="sourcePoint" />
            <mxPoint x="510" y="500" as="targetPoint" />
          </mxGeometry>
        </mxCell>
        <mxCell id="gwjLcsz46P20MZwivV7I-56" value="Use" style="endArrow=open;endSize=12;dashed=1;html=1;rounded=0;" edge="1" parent="1" source="gwjLcsz46P20MZwivV7I-22" target="gwjLcsz46P20MZwivV7I-46">
          <mxGeometry width="160" relative="1" as="geometry">
            <mxPoint x="350" y="500" as="sourcePoint" />
            <mxPoint x="380" y="620" as="targetPoint" />
          </mxGeometry>
        </mxCell>
        <mxCell id="gwjLcsz46P20MZwivV7I-57" value="Use" style="endArrow=open;endSize=12;dashed=1;html=1;rounded=0;" edge="1" parent="1" source="gwjLcsz46P20MZwivV7I-22" target="gwjLcsz46P20MZwivV7I-1">
          <mxGeometry width="160" relative="1" as="geometry">
            <mxPoint x="350" y="500" as="sourcePoint" />
            <mxPoint x="510" y="500" as="targetPoint" />
          </mxGeometry>
        </mxCell>
      </root>
    </mxGraphModel>
  </diagram>
</mxfile>
